<?xml version="1.0" encoding="utf-8"?>
<!-- Generator: Adobe Illustrator 27.0.0, SVG Export Plug-In . SVG Version: 6.00 Build 0)  -->
<svg version="1.1" id="Layer_2" xmlns="http://www.w3.org/2000/svg" xmlns:xlink="http://www.w3.org/1999/xlink" x="0px" y="0px"
	 viewBox="0 0 1000 1000" style="enable-background:new 0 0 1000 1000;" xml:space="preserve">
<style type="text/css">
	.st0{opacity:0.9;fill:#1F2322;}
</style>
<path class="st0" d="M685.8,100l-371.6,0c-27.9,0-53.7,14.9-67.7,39.1L60.7,460.9c-14,24.2-14,54,0,78.2l185.8,321.8
	c14,24.2,39.8,39.1,67.7,39.1l371.6,0c27.9,0,53.7-14.9,67.7-39.1l185.8-321.8c14-24.2,14-54,0-78.2L753.5,139.1
	C739.5,114.9,713.7,100,685.8,100z"/>
<g>
	<g>
		<defs>
			<path id="SVGID_1_" d="M857.3,263.6L542.7,82c-26.4-15.3-59-15.3-85.4,0L142.7,263.6c-26.4,15.3-42.7,43.5-42.7,74l0,363.2
				c0,30.5,16.3,58.7,42.7,74l314.6,181.6c26.4,15.3,59,15.3,85.4,0l314.6-181.6c26.4-15.3,42.7-43.5,42.7-74l0-363.2
				C900,307.1,883.7,278.9,857.3,263.6z"/>
		</defs>
		<clipPath id="SVGID_00000054265469353930861740000006914533340043239058_">
			<use xlink:href="#SVGID_1_"  style="overflow:visible;"/>
		</clipPath>
		<g transform="matrix(1 0 0 1 0 0)" style="clip-path:url(#SVGID_00000054265469353930861740000006914533340043239058_);">
			
				<image style="overflow:visible;" width="408" height="840" xlink:href="../../../../../Pictures/GIF/20220915093240.gif"  transform="matrix(1.9878 0 0 1.5926 94.4939 -149.7126)">
			</image>
		</g>
	</g>
	<g>
		<defs>
			<path id="SVGID_00000159445344724468147700000010315486411834169229_" d="M222,218c0,0-8-0.9-13.2-6.1c0,0-12.8-23.6-7.1-35
				L248,77.1l164.1-5.2c0,0,5.7-9,29.8-11.4c0,0,9-24.6,78-28.4c0,0,59.1,19.9,69.5,32.6h53.4l2.4,77.6L222,218z"/>
		</defs>
		<clipPath id="SVGID_00000000185582393508980210000008082637782789550977_">
			<use xlink:href="#SVGID_00000159445344724468147700000010315486411834169229_"  style="overflow:visible;"/>
		</clipPath>
		
			<g transform="matrix(1 0 0 1 -1.525879e-05 0)" style="clip-path:url(#SVGID_00000000185582393508980210000008082637782789550977_);">
			
				<image style="overflow:visible;" width="408" height="840" xlink:href="../../../../../Pictures/GIF/20220915093240.gif"  transform="matrix(1.4834 0 0 1.1885 197.3911 0.8248)">
			</image>
		</g>
	</g>
</g>
</svg>
